Coordinates
version=1
nRows=22
nColumns=21
inDegrees=yes

Units are S.I. units (second, meters, Newtons, ...)
Angles are in degrees.

endheader
time	Pelvis_pitch	Pelvis_roll	Pelvis_yaw	Pelvis_Tx	Pelvis_Ty	Pelvis_Tz	L_hip_flex-ext	L_hip_adb-add	L_hip_LAR	L_knee_flex-ext	L_crus_pron-sup	L_ankle_flex-ext	L_MTP_flex-ext	R_hip_flex-ext	R_hip_adb-add	R_hip_LAR	R_knee_flex-ext	R_crus_pron-sup	R_ankle_flex-ext	R_MTP_flex-ext
      0.28000000	     -4.31256427	     -9.37256267	      9.51973013	      0.03709685	      0.15580087	      0.09320491	      0.00000000	      0.00000000	      0.00000000	      0.00000000	      0.00000000	      0.00000000	      0.00000000	    -41.04845932	     -2.75972086	     41.53345644	    -68.82524302	    -17.21972881	   -107.54199242	     -4.65802089
      0.28010000	     -4.29026636	     -9.32589236	      9.54874788	      0.03718915	      0.15576240	      0.09323949	      0.00000000	      0.00000000	      0.00000000	      0.00000000	      0.00000000	      0.00000000	      0.00000000	    -41.05215264	     -2.80410991	     41.50945915	    -68.81212361	    -17.17122850	   -107.51961902	     -4.63175575
      0.28020000	     -4.28929002	     -9.32287721	      9.55065638	      0.03731152	      0.15574962	      0.09316608	      0.00000000	      0.00000000	      0.00000000	      0.00000000	      0.00000000	      0.00000000	      0.00000000	    -41.04954203	     -2.80770384	     41.50600275	    -68.80884391	    -17.16370425	   -107.51487599	     -4.62649862
      0.28030000	     -4.26701626	     -9.27153675	      9.57585622	      0.03741670	      0.15572615	      0.09319810	      0.00000000	      0.00000000	      0.00000000	      0.00000000	      0.00000000	      0.00000000	      0.00000000	    -41.04975213	     -2.85613693	     41.47675930	    -68.79108657	    -17.11249711	   -107.49169499	     -4.59740903
      0.28040000	     -4.26691825	     -9.26889087	      9.57698228	      0.03753975	      0.15571495	      0.09312235	      0.00000000	      0.00000000	      0.00000000	      0.00000000	      0.00000000	      0.00000000	      0.00000000	    -41.04657960	     -2.85920997	     41.47268114	    -68.78684389	    -17.10503432	   -107.48703291	     -4.59184980
      0.28050000	     -4.24720274	     -9.21486708	      9.59969144	      0.03764476	      0.15569243	      0.09315724	      0.00000000	      0.00000000	      0.00000000	      0.00000000	      0.00000000	      0.00000000	      0.00000000	    -41.04385999	     -2.90928176	     41.43765540	    -68.76260251	    -17.05028551	   -107.46267320	     -4.55910610
      0.28060000	     -4.24771215	     -9.21261057	      9.59990891	      0.03777029	      0.15568254	      0.09307889	      0.00000000	      0.00000000	      0.00000000	      0.00000000	      0.00000000	      0.00000000	      0.00000000	    -41.03999575	     -2.91201132	     41.43312528	    -68.75764595	    -17.04286321	   -107.45798286	     -4.55332522
      0.28070000	     -4.22924108	     -9.15419972	      9.61996523	      0.03787678	      0.15566003	      0.09312268	      0.00000000	      0.00000000	      0.00000000	      0.00000000	      0.00000000	      0.00000000	      0.00000000	    -41.03328969	     -2.96612360	     41.39122646	    -68.72631860	    -16.98221414	   -107.43096253	     -4.51576882
      0.28080000	     -4.54847394	     -8.99784714	      9.40787766	      0.03832479	      0.15610686	      0.09323814	      0.00000000	      0.00000000	      0.00000000	      0.00000000	      0.00000000	      0.00000000	      0.00000000	    -40.11386880	     -3.26607036	     40.53444526	    -67.70626416	    -15.63130513	   -106.53782312	     -3.40087026
      0.28090000	     -4.35367871	     -9.28284451	      9.84558182	      0.03810416	      0.15587417	      0.09311671	      0.00000000	      0.00000000	      0.00000000	      0.00000000	      0.00000000	      0.00000000	      0.00000000	    -40.19693563	     -3.15772277	     40.83586243	    -68.13684479	    -15.18246594	   -106.00938979	     -3.30576410
      0.28100000	     -4.35283012	     -9.27963199	      9.84639447	      0.03825408	      0.15582085	      0.09298828	      0.00000000	      0.00000000	      0.00000000	      0.00000000	      0.00000000	      0.00000000	      0.00000000	    -40.19697354	     -3.15891952	     40.83424825	    -68.13680088	    -15.18124833	   -106.00845820	     -3.30417586
      0.28110000	     -4.33127079	     -9.20800180	      9.86602249	      0.03835290	      0.15578933	      0.09304023	      0.00000000	      0.00000000	      0.00000000	      0.00000000	      0.00000000	      0.00000000	      0.00000000	    -40.20611831	     -3.19613653	     40.80224482	    -68.13784171	    -15.15473883	   -105.99708109	     -3.27850700
      0.28120000	     -4.33071324	     -9.19928746	      9.86693210	      0.03847755	      0.15577457	      0.09297043	      0.00000000	      0.00000000	      0.00000000	      0.00000000	      0.00000000	      0.00000000	      0.00000000	    -40.20478527	     -3.19829259	     40.79630553	    -68.13672459	    -15.15041718	   -105.99394956	     -3.27229935
      0.28130000	     -4.31623114	     -9.13176097	      9.88076972	      0.03858487	      0.15577551	      0.09299317	      0.00000000	      0.00000000	      0.00000000	      0.00000000	      0.00000000	      0.00000000	      0.00000000	    -40.20743766	     -3.22925693	     40.75948408	    -68.13134349	    -15.12150159	   -105.97993877	     -3.24081219
      0.28140000	     -4.31576096	     -9.12314065	      9.88122439	      0.03871706	      0.15574874	      0.09292331	      0.00000000	      0.00000000	      0.00000000	      0.00000000	      0.00000000	      0.00000000	      0.00000000	    -40.20577024	     -3.23170442	     40.75314420	    -68.12945853	    -15.11678548	   -105.97675000	     -3.23448460
      0.28150000	     -4.30116393	     -9.05316399	      9.89350375	      0.03882501	      0.15574920	      0.09295168	      0.00000000	      0.00000000	      0.00000000	      0.00000000	      0.00000000	      0.00000000	      0.00000000	    -40.20701056	     -3.26561401	     40.71257933	    -68.11982069	    -15.08444985	   -105.96186282	     -3.20101329
      0.28160000	     -4.31086497	     -8.91791286	      9.87806535	      0.03897293	      0.15574133	      0.09303821	      0.00000000	      0.00000000	      0.00000000	      0.00000000	      0.00000000	      0.00000000	      0.00000000	    -40.15540759	     -3.29650526	     40.59074125	    -68.07025965	    -14.99142249	   -105.89806776	     -3.07635230
      0.28170000	     -4.34369139	     -8.94474025	      9.84850734	      0.03914600	      0.15580252	      0.09283586	      0.00000000	      0.00000000	      0.00000000	      0.00000000	      0.00000000	      0.00000000	      0.00000000	    -40.11422245	     -3.25532579	     40.57266880	    -68.05246129	    -14.97320039	   -105.87059563	     -3.03829627
      0.28180000	     -4.31909036	     -8.87890102	      9.87059342	      0.03923646	      0.15576388	      0.09289335	      0.00000000	      0.00000000	      0.00000000	      0.00000000	      0.00000000	      0.00000000	      0.00000000	    -40.12557392	     -3.29787453	     40.54098565	    -68.04708427	    -14.93718274	   -105.85654953	     -3.01437690
      0.28190000	     -4.31789323	     -8.87179655	      9.87150201	      0.03936107	      0.15574897	      0.09282304	      0.00000000	      0.00000000	      0.00000000	      0.00000000	      0.00000000	      0.00000000	      0.00000000	    -40.12422121	     -3.30106580	     40.53520121	    -68.04461486	    -14.93086486	   -105.85266031	     -3.00852693
      0.28200000	     -4.29982733	     -8.81042467	      9.88583363	      0.03946636	      0.15574477	      0.09284941	      0.00000000	      0.00000000	      0.00000000	      0.00000000	      0.00000000	      0.00000000	      0.00000000	    -40.12689783	     -3.33837897	     40.49797155	    -68.03199626	    -14.89071709	   -105.83418888	     -2.97792221
      0.28210000	     -4.29701464	     -8.70180140	      9.87883928	      0.03960148	      0.15572185	      0.09293354	      0.00000000	      0.00000000	      0.00000000	      0.00000000	      0.00000000	      0.00000000	      0.00000000	    -40.08203962	     -3.38312326	     40.38648762	    -67.97161456	    -14.77163763	   -105.75894962	     -2.86417552
